# AST/ASF file generated using VICON BodyLanguage
# -----------------------------------------------
:version 1.10
:name VICON
:units
  mass 1.0
  length 0.45
  angle deg
:documentation
   .ast/.asf automatically generated from VICON data using
   VICON BodyBuilder and BodyLanguage model FoxedUp or BRILLIANT.MOD
:root
   order TX TY TZ RX RY RZ
   axis XYZ
   position 0 0 0  
   orientation 0 0 0 
:bonedata
  begin
     id 1 
     name lhipjoint
     direction 0.677091 -0.635792 0.370561 
     length 2.74323 
     axis 0 0 0  XYZ
  end
  begin
     id 2 
     name lfemur
     direction 0.34202 -0.939693 0  
     length 7.44995  
     axis 0 0 20  XYZ
    dof rx ry rz
    limits (-160.0 20.0)
           (-70.0 70.0)
           (-60.0 70.0)
  end
  begin
     id 3 
     name ltibia
     direction 0.34202 -0.939693 0   
     length 7.34467   
     axis 0 0 20   XYZ
    dof rx
    limits (-10.0 170.0)
  end
  begin
     id 4 
     name lfoot
     direction 0.101953 -0.280114 0.954537   
     length 1.72105   
     axis -90 7.62852e-016 20   XYZ
    dof rx rz
    limits (-45.0 90.0)
           (-70.0 20.0)
  end
  begin
     id 5 
     name ltoes
     direction 1.53537e-011 -4.21915e-011 1   
     length 0.865872   
     axis -90 7.62852e-016 20   XYZ
    dof rx
    limits (-90.0 20.0)
  end
  begin
     id 6 
     name rhipjoint
     direction -0.695735 -0.620586 0.361699   
     length 2.81045  
     axis 0 0 0  XYZ 
  end
  begin
     id 7 
     name rfemur
     direction -0.34202 -0.939693 0   
     length 7.29387   
     axis 0 0 -20   XYZ
    dof rx ry rz
    limits (-160.0 20.0)
           (-70.0 70.0)
           (-70.0 60.0)
  end
  begin
     id 8 
     name rtibia
     direction -0.34202 -0.939693 0   
     length 7.44935   
     axis 0 0 -20   XYZ
    dof rx
    limits (-10.0 170.0)
 end
 begin
     id 9 
     name rfoot
     direction -0.104163 -0.286184 0.952496   
     length 1.77731  
     axis -90 -7.62852e-016 -20   XYZ
    dof rx rz
    limits (-45.0 90.0)
           (-20.0 70.0)
  end
  begin
     id 10 
     name rtoes
     direction -1.5355e-011 -4.21888e-011 1   
     length 0.892424   
     axis -90 -7.62852e-016 -20   XYZ
    dof rx
    limits (-90.0 20.0)
  end
  begin
     id 11 
     name lowerback
     direction 0.0100202 0.997226 -0.0737589   
     length 2.16892   
     axis 0 0 0   XYZ
    dof rx ry rz
    limits (-20.0 45.0)
           (-30.0 30.0)
           (-30.0 30.0)
  end
  begin
     id 12 
     name upperback
     direction 0.00432398 0.999988 -0.00215019   
     length 2.17326   
     axis 0 0 0   XYZ
    dof rx ry rz
    limits (-20.0 45.0)
           (-30.0 30.0)
           (-30.0 30.0)
  end
  begin
     id 13 
     name thorax
     direction -0.00195047 0.999485 0.0320434   
     length 2.18139   
     axis 0 0 0   XYZ
    dof rx ry rz
    limits (-20.0 45.0)
           (-30.0 30.0)
           (-30.0 30.0)
  end
  begin
     id 14 
     name lowerneck
     direction 0.00782762 0.986241 0.165128   
     length 1.88415   
     axis 0 0 0   XYZ
    dof rx ry rz
    limits (-20.0 45.0)
           (-30.0 30.0)
           (-30.0 30.0)
  end
  begin
     id 15 
     name upperneck
     direction 0.00988667 0.981098 -0.193258   
     length 1.9242   
     axis 0 0 0   XYZ
    dof rx ry rz
    limits (-20.0 45.0)
           (-30.0 30.0)
           (-30.0 30.0)
  end
  begin
     id 16
     name head
     direction 0.00252199 0.996513 -0.0833958  
     length 1.93887  
     axis 0 0 0   XYZ
    dof rx ry rz
    limits (-20.0 45.0)
           (-30.0 30.0)
           (-30.0 30.0)
  end
  begin
     id 17 
     name lclavicle
     direction 0.929492 0.368193 -0.0218667  
     length 3.5955  
     axis 0 0 0   XYZ
    dof ry rz
    limits (-20.0 10.0)
           (0.0 20.0)
  end
  begin
     id 18 
     name lhumerus
     direction 1 -4.48972e-011 1.41911e-027   
     length 5.2795   
     axis 180 -30 -90   XYZ
    dof rx ry rz
    limits (-60.0 90.0)
           (-90.0 90.0)
           (-90.0 90.0)
  end
  begin
     id 19
     name lradius
     direction 1 -4.48963e-011 7.05772e-027   
     length 3.53504   
     axis 180 -30 -90   XYZ
    dof rx
    limits (-10.0 170.0)
  end
  begin
     id 20
     name lwrist
     direction 1 -4.48957e-011 9.54866e-027   
     length 1.76752   
     axis -7.69462e-015 90 90   XYZ
    dof ry
    limits (-180.0 0.0)
 end
  begin
     id 21 
     name lhand
     direction 1 -4.48979e-011 1.90973e-026   
     length 0.667948   
     axis -1.21857e-014 90 90   XYZ
    dof rx rz
    limits (-90.0 90.0)
           (-45.0 45.0)
  end
  begin
     id 22 
     name lfingers
     direction 1 -4.48987e-011 3.81946e-026   
     length 0.538517   
     axis -2.43714e-014 90 90   XYZ
    dof rx
    limits (0.0 90.0)
  end
  begin
     id 23
     name lthumb
     direction 0.707107 -6.34962e-011 0.707107   
     length 0.773206   
     axis -90 45 2.85299e-015   XYZ
    dof rx rz
    limits (-45.0 45.0)
           (-45.0 45.0)
  end
  begin
     id 24 
     name rclavicle
     direction -0.898763 0.414256 -0.143584   
     length 3.5176  
     axis 0 0 0   XYZ 
    dof ry rz
    limits (-10.0 20.0)
           (-20.0 0.0)
  end
  begin
     id 25 
     name rhumerus
     direction -1 -4.48971e-011 1.129e-027  
     length 5.25035   
     axis 180 30 90   XYZ
    dof rx ry rz
    limits (-90.0 60.0)
           (-90.0 90.0)
           (-90.0 90.0)
  end
  begin
     id 26 
     name rradius
     direction -1 -4.48955e-011 6.34664e-027   
     length 3.58884   
     axis 180 30 90   XYZ
    dof rx
    limits (-10.0 170.0)
  end
  begin
     id 27 
     name rwrist
     direction -1 -4.48966e-011 9.54866e-027   
     length 1.79442   
     axis -7.69462e-015 -90 -90   XYZ
    dof ry
    limits (-180.0 0.0)
  end
  begin
     id 28
     name rhand
     direction -1 -4.48973e-011 1.90973e-026   
     length 0.779235   
     axis -1.21857e-014 -90 -90   XYZ
    dof rx rz
    limits (-90.0 90.0)
           (-45.0 45.0)
  end
  begin
     id 29
     name rfingers
     direction -1 -4.48984e-011 3.81946e-026   
     length 0.62824   
     axis -2.43714e-014 -90 -90   XYZ
    dof rx
    limits (0.0 90.0)
  end
  begin
     id 30
     name rthumb
     direction -0.707107 -6.34968e-011 0.707107   
     length 0.90203   
     axis -90 -45 -2.85299e-015   XYZ
    dof rx rz
    limits (-45.0 45.0)
           (-45.0 45.0)
  end
:hierarchy
  begin
    root lhipjoint rhipjoint lowerback
    lhipjoint lfemur
    lfemur ltibia
    ltibia lfoot
    lfoot ltoes
    rhipjoint rfemur
    rfemur rtibia
    rtibia rfoot
    rfoot rtoes
    lowerback upperback
    upperback thorax
    thorax lowerneck lclavicle rclavicle
    lowerneck upperneck
    upperneck head
    lclavicle lhumerus
    lhumerus lradius
    lradius lwrist
    lwrist lhand lthumb
    lhand lfingers
    rclavicle rhumerus
    rhumerus rradius
    rradius rwrist
    rwrist rhand rthumb
    rhand rfingers
  end

#!OML:ASF I:\Random Stuff\random\construction\7_22_03\Session 2\subj1.ASF
:FULLY-SPECIFIED
:DEGREES
361
root 4.00919 17.8463 -8.37864 13.1612 -28.8282 1.12168
lowerback 5.68954 -1.02499 3.74188
upperback 2.21922 -1.18587 -0.837356
thorax -0.994863 -0.581626 -2.88581
lowerneck -20.3121 -3.38298 -7.10419
upperneck 40.0475 -6.49104 8.2065
head 19.4374 -2.65424 3.80203
rclavicle -3.557e-014 -5.96354e-015
rhumerus -35.8537 26.5469 -87.6461
rradius 99.3115
rwrist -38.7513
rhand -27.5773 20.2034
rfingers 7.12502
rthumb -0.977614 -9.77415
lclavicle -3.557e-014 -5.96354e-015
lhumerus -18.8652 -51.7314 100.231
lradius 93.311
lwrist 59.1602
lhand -12.2471 60.2659
lfingers 7.12502
lthumb -166.181 629.787
rfemur -19.5615 7.14598 18.9931
rtibia 14.6711
rfoot -8.20589 -2.82448
rtoes -22.2003
lfemur -13.7868 2.60655 -13.389
ltibia 22.6145
lfoot -9.69791 8.23302
ltoes -33.1498
362
root 4.01697 17.8432 -8.36937 13.2227 -28.8027 0.976724
lowerback 5.56837 -1.01624 3.84701
upperback 2.15943 -1.17037 -0.712509
thorax -0.987174 -0.574449 -2.81834
lowerneck -20.2845 -3.3598 -7.11827
upperneck 40.0265 -6.42895 8.16445
head 19.405 -2.63773 3.79603
rclavicle 5.11871e-015 1.11816e-014
rhumerus -36.0741 26.4923 -87.5531
rradius 100.774
rwrist -39.1405
rhand -27.1994 19.7955
rfingers 7.12502
rthumb -0.612678 -10.1834
lclavicle 5.11871e-015 1.11816e-014
lhumerus -20.207 -51.5798 100.981
lradius 94.9687
lwrist 57.6105
lhand -11.5381 58.8769
lfingers 7.12502
lthumb -165.498 628.35
rfemur -19.5109 7.21007 19.0948
rtibia 14.6469
rfoot -8.27077 -2.88196
rtoes -22.5606
lfemur -13.4884 2.79368 -13.4061
ltibia 22.5395
lfoot -9.90137 8.51915
ltoes -33.9077
363
root 4.03042 17.8365 -8.35937 13.3609 -28.6761 0.785586
lowerback 5.42171 -1.02437 3.99295
upperback 2.08061 -1.17565 -0.552852
thorax -0.986497 -0.578004 -2.73674
lowerneck -20.3092 -3.31705 -7.18112
upperneck 40.0766 -6.33055 8.14854
head 19.4318 -2.61131 3.82496
rclavicle -2.05742e-014 -2.98177e-016
rhumerus -36.2604 26.3763 -87.4478
rradius 102.114
rwrist -39.5519
rhand -27.3722 19.9098
rfingers 7.12502
rthumb -0.779562 -10.0685
lclavicle -2.05742e-014 -2.98177e-016
lhumerus -21.2552 -51.4427 101.57
lradius 96.4121
lwrist 56.3505
lhand -9.58342 58.2114
lfingers 7.12502
lthumb -163.615 627.539
rfemur -19.4849 7.25791 19.2178
rtibia 14.5559
rfoot -8.23912 -3.03643
rtoes -23.1082
lfemur -13.5135 2.34491 -13.2427
ltibia 22.294
lfoot -10.0671 9.03345
ltoes -33.1515
364
root 4.04408 17.8334 -8.34832 13.578 -28.5219 0.559985
lowerback 5.17285 -1.08084 4.14961
upperback 1.99174 -1.24941 -0.385886
thorax -0.944481 -0.615014 -2.65091
lowerneck -20.303 -3.27668 -7.12663
upperneck 40.1319 -6.23812 8.01275
head 19.4399 -2.58629 3.77038
rclavicle -4.44284e-014 -1.39149e-014
rhumerus -36.464 26.3758 -87.4669
rradius 103.788
rwrist -41.2783
rhand -27.9714 20.1896
rfingers 7.12502
rthumb -1.35829 -9.78582
lclavicle -4.44284e-014 -1.39149e-014
lhumerus -21.9935 -51.2416 101.898
lradius 97.7867
lwrist 56.8686
lhand -8.788 57.9795
lfingers 7.12502
lthumb -162.849 627.243
rfemur -19.4942 7.33433 19.3594
rtibia 14.4136
rfoot -8.138 -3.24601
rtoes -23.4459
lfemur -13.5088 1.85784 -13.0317
ltibia 21.9794
lfoot -10.2222 9.43275
ltoes -33.8247
365
root 4.05727 17.8326 -8.33567 13.771 -28.3515 0.370514
lowerback 4.91693 -1.14864 4.25572
upperback 1.88976 -1.34194 -0.247202
thorax -0.912953 -0.66189 -2.56519
lowerneck -20.1676 -3.2574 -7.06525
upperneck 40.1193 -6.20851 7.92838
head 19.3804 -2.57993 3.72175
rclavicle -1.04859e-014 -4.67144e-015
rhumerus -36.6615 26.2567 -87.5115
rradius 105.633
rwrist -43.272
rhand -27.9024 20.2349
rfingers 7.12502
rthumb -1.29162 -9.74094
lclavicle -1.04859e-014 -4.67144e-015
lhumerus -22.6506 -51.049 102.235
lradius 99.0192
lwrist 58.349
lhand -9.10671 57.51
lfingers 7.12502
lthumb -163.156 626.8
rfemur -19.4698 7.46388 19.4515
rtibia 14.2387
rfoot -8.12713 -3.45437
rtoes -23.8283
lfemur -13.4027 1.58023 -12.8711
ltibia 21.6169
lfoot -10.1851 9.68439
ltoes -36.035
